<svg width="238" height="42" viewBox="0 0 238 42" fill="none" xmlns="http://www.w3.org/2000/svg">
<path d="M236.495 8.49998C151.495 1.49998 -38.0854 -9.33485 8.99512 23.5C10.9902 24.8914 27.9952 37.5 36.4951 33" stroke="#00A351" stroke-width="2" stroke-linecap="round" stroke-linejoin="round" stroke-dasharray="8 8"/>
<path d="M69.2072 26.4374C64.9859 26.2332 63.0716 28.8622 63.0716 28.8622C69.7213 30.6845 72.4319 24.1915 72.4319 24.1915C71.2833 25.7909 69.839 24.7104 66.2071 24.6921C61.3101 24.6668 59.7054 28.5641 59.7054 28.5641C63.3339 25.0101 69.2072 26.4374 69.2072 26.4374Z" fill="#00A351"/>
<path d="M77.01 31.3822C74.6388 31.268 73.5639 32.744 73.5639 32.744C77.2993 33.7678 78.8217 30.1208 78.8217 30.1208C78.1764 31.0199 77.3652 30.413 75.3244 30.4024C72.5731 30.3887 71.6717 32.5771 71.6717 32.5771C73.7103 30.5801 77.009 31.3822 77.009 31.3822L77.01 31.3822Z" fill="#00A351"/>
<path d="M69.5579 34.7621C69.5579 34.7621 70.3556 36.9964 73.3118 37.7771C73.3118 37.7771 68.9702 37.4794 67.1725 34.2319C67.1725 34.2319 67.5031 37.2747 70.8907 38.3273C73.4036 39.1076 74.6162 38.6776 75.091 40.0331C75.091 40.0331 74.5152 34.9559 69.558 34.7611L69.5579 34.7621Z" fill="#00A351"/>
<path d="M80.3017 37.2145C80.3017 37.2145 81.1942 38.8748 83.6351 39.0894C83.6351 39.0894 80.1496 39.4478 78.344 37.1213C78.344 37.1213 78.9589 39.4859 81.7739 39.8564C83.8619 40.1311 84.7763 39.6242 85.3097 40.6334C85.3097 40.6334 84.2635 36.6912 80.3007 37.2155L80.3017 37.2145Z" fill="#00A351"/>
<path d="M88.3044 29.6355C88.0369 26.8456 87.2303 25.8106 88.1941 24.816C88.1941 24.816 84.1441 27.3561 85.8019 32.3385C85.8019 32.3385 87.3844 30.6823 86.9541 27.4519C86.9541 27.4519 88.2989 31.8664 86.2329 34.9053C86.2329 34.9053 88.6653 33.3985 88.3044 29.6355Z" fill="#00A351"/>
<path d="M52.6191 29.6954C52.6191 29.6954 54.0147 33.9614 59.5564 35.6086C59.5564 35.6086 51.3758 34.7946 48.144 28.5555C48.144 28.5555 48.6171 34.3211 54.9604 36.5068C59.6647 38.1267 61.976 37.3842 62.8035 39.9729C62.8035 39.9729 61.9665 30.3495 52.6191 29.6954Z" fill="#00A351"/>
<path d="M53.9611 19.7201C47.2292 20.366 44.7057 24.9588 44.7057 24.9588C55.6017 26.3142 58.6359 15.4299 58.6359 15.4299C57.1263 18.2221 54.6256 16.8457 48.865 17.6492C41.0969 18.732 39.3111 25.2602 39.3111 25.2602C44.3731 18.8103 53.9611 19.7191 53.9611 19.7191L53.9611 19.7201Z" fill="#00A351"/>
<path d="M50.9169 28.3087C64.0345 30.2941 83.4954 42.9868 86.8705 31.0799C86.5931 31.9609 84.3557 37.5297 73.0382 33.7879C60.775 29.7341 49.8224 24.5069 42.4403 27.4282C35.0582 30.3495 36.4403 33.9282 36.4403 33.9282C36.4403 33.9282 37.7571 26.3173 50.9169 28.3087Z" fill="#00A351"/>
<path d="M86.8715 31.0793C86.8938 31.0063 86.903 30.965 86.903 30.965C86.893 31.0042 86.8814 31.0412 86.8715 31.0793Z" fill="#00A351"/>
</svg>
