<svg width="238" height="42" viewBox="0 0 238 42" fill="none" xmlns="http://www.w3.org/2000/svg">
<path d="M236.495 8.50005C151.495 1.50004 -38.0854 -9.33479 8.99512 23.5001C10.9902 24.8915 27.9952 37.5001 36.4951 33.0001" stroke="#F8F9FA" stroke-width="2" stroke-linecap="round" stroke-linejoin="round" stroke-dasharray="8 8"/>
<path d="M69.2072 26.4374C64.9859 26.2331 63.0716 28.8621 63.0716 28.8621C69.7213 30.6844 72.4319 24.1914 72.4319 24.1914C71.2833 25.7908 69.839 24.7103 66.2071 24.6921C61.3101 24.6668 59.7054 28.564 59.7054 28.564C63.3339 25.0101 69.2072 26.4374 69.2072 26.4374Z" fill="#F8F9FA"/>
<path d="M77.01 31.3823C74.6388 31.268 73.5639 32.744 73.5639 32.744C77.2993 33.7679 78.8217 30.1208 78.8217 30.1208C78.1764 31.0199 77.3652 30.413 75.3244 30.4025C72.5731 30.3887 71.6717 32.5771 71.6717 32.5771C73.7103 30.5802 77.009 31.3822 77.009 31.3822L77.01 31.3823Z" fill="#F8F9FA"/>
<path d="M69.5579 34.762C69.5579 34.762 70.3556 36.9963 73.3118 37.7771C73.3118 37.7771 68.9702 37.4793 67.1725 34.2318C67.1725 34.2318 67.5031 37.2746 70.8907 38.3272C73.4036 39.1075 74.6162 38.6775 75.091 40.033C75.091 40.033 74.5152 34.9558 69.558 34.761L69.5579 34.762Z" fill="#F8F9FA"/>
<path d="M80.3017 37.2146C80.3017 37.2146 81.1942 38.8749 83.6351 39.0894C83.6351 39.0894 80.1496 39.4479 78.344 37.1213C78.344 37.1213 78.9589 39.486 81.7739 39.8564C83.8619 40.1312 84.7763 39.6243 85.3097 40.6335C85.3097 40.6335 84.2635 36.6913 80.3007 37.2155L80.3017 37.2146Z" fill="#F8F9FA"/>
<path d="M88.3044 29.6354C88.0369 26.8455 87.2303 25.8105 88.1941 24.816C88.1941 24.816 84.1441 27.356 85.8019 32.3384C85.8019 32.3384 87.3844 30.6823 86.9541 27.4519C86.9541 27.4519 88.2989 31.8664 86.2329 34.9053C86.2329 34.9053 88.6653 33.3984 88.3044 29.6354Z" fill="#F8F9FA"/>
<path d="M52.6191 29.6954C52.6191 29.6954 54.0147 33.9614 59.5564 35.6085C59.5564 35.6085 51.3758 34.7946 48.144 28.5554C48.144 28.5554 48.6171 34.3211 54.9604 36.5067C59.6647 38.1267 61.976 37.3842 62.8035 39.9729C62.8035 39.9729 61.9665 30.3495 52.6191 29.6954Z" fill="#F8F9FA"/>
<path d="M53.9611 19.7201C47.2292 20.366 44.7057 24.9588 44.7057 24.9588C55.6017 26.3142 58.6359 15.4299 58.6359 15.4299C57.1263 18.2221 54.6256 16.8457 48.865 17.6492C41.0969 18.732 39.3111 25.2602 39.3111 25.2602C44.3731 18.8103 53.9611 19.7191 53.9611 19.7191L53.9611 19.7201Z" fill="#F8F9FA"/>
<path d="M50.9169 28.3087C64.0345 30.2941 83.4954 42.9868 86.8705 31.0799C86.5931 31.9609 84.3557 37.5297 73.0382 33.7879C60.775 29.7341 49.8224 24.5069 42.4403 27.4282C35.0582 30.3495 36.4403 33.9282 36.4403 33.9282C36.4403 33.9282 37.7571 26.3174 50.9169 28.3087Z" fill="#F8F9FA"/>
<path d="M86.8715 31.0793C86.8938 31.0063 86.903 30.965 86.903 30.965C86.893 31.0042 86.8814 31.0412 86.8715 31.0793Z" fill="#F8F9FA"/>
</svg>
